<?xml version="1.0" encoding="utf-8"?>
<!-- Generator: Adobe Illustrator 21.1.0, SVG Export Plug-In . SVG Version: 6.00 Build 0)  -->
<svg version="1.1" id="Layer_1" xmlns="http://www.w3.org/2000/svg" xmlns:xlink="http://www.w3.org/1999/xlink" x="0px" y="0px"
	 viewBox="0 0 1200 1200" enable-background="new 0 0 1200 1200" xml:space="preserve">
<polygon fill="none" stroke="#FFFFFF" stroke-width="51" stroke-linecap="round" stroke-miterlimit="10" points="809.8,619 
	701.5,1151.2 441.8,1151.2 333.5,619 "/>
<g id="XMLID_1_">
	<g>
		<path fill="none" stroke="#FFFFFF" stroke-width="51" stroke-linecap="round" stroke-miterlimit="10" d="M799.8,682.3
			c48.8-20.5,99.7-28,123.3-9.4c45,35.5-20.6,164.5-61.5,226.9c-28.4,43.4-72.9,61.4-112.6,56.4"/>
	</g>
</g>
<polygon fill="#FFFFFF" stroke="#FFFFFF" stroke-miterlimit="10" points="775.6,745.9 677.4,1151.2 441.8,1151.2 343.6,745.9 "/>
<path fill="#FFFFFF" d="M432.9,453.8c2.7,5,4.5,6.4,6.9,9.8l6,7.3c1.1,2.5,3,4.4,3.8,7c2,5.1,4.1,10.4,4.8,16.4
	c1.9,11.5,1.8,23.7,1.3,34.2c-1.4,21.1-3.5,36.6-3.5,36.6s11.3-11,20.3-32.6c2.2-5.4,4.4-11.5,5.9-18.2c1.4-6.7,2.8-14.1,2.5-22.1
	c0-7.8-1-16.5-4.1-24.9c-1.3-4.3-3.9-8.3-5.9-12.4c-1.2-2-2.7-3.8-4.1-5.7l-2.2-2.8l-1.1-1.4l-0.3-0.4c0.1,0.2,0.3,0.4,0.7,0.9
	l-0.1-0.2l-0.4-0.5c-1.9-2.6-5.6-6.3-6.1-7.9c-0.9-1.9-2.2-3.4-3-6.4c-2.1-5-3.6-10.7-4.5-16.6c-1.8-11.7-1.5-23.8-1-34.4
	c1.4-21.2,3.2-36.7,3.2-36.7s-11,11.2-20,32.7c-4.5,10.8-8.5,24.2-8.7,40c0.2,7.8,0.3,16.4,3.6,24.8
	C427.9,444.5,430.3,449.2,432.9,453.8z"/>
<path fill="#FFFFFF" d="M523.8,342.6c2.7,5,4.5,6.4,6.9,9.8l6,7.2c1.1,2.4,2.9,4.4,3.7,7c2,5,4.1,10.4,4.8,16.3
	c1.9,11.5,1.8,23.6,1.3,34.1c-1.4,21.1-3.4,36.5-3.4,36.5s11.2-10.9,20.2-32.5c2.2-5.4,4.4-11.4,5.9-18.2c1.4-6.7,2.8-13.9,2.5-21.9
	c0-7.8-0.9-16.5-4.1-24.8c-1.3-4.2-3.9-8.2-5.9-12.4c-1.2-2-2.7-3.8-4.1-5.7l-2.1-2.8l-1.1-1.4l-0.2-0.4c0.1,0.2,0.3,0.4,0.6,0.7
	l-0.4-0.5c-1.9-2.6-5.6-6.2-6-7.8c-0.9-1.9-2.2-3.4-3-6.4c-2.1-5-3.6-10.7-4.4-16.5c-1.7-11.7-1.5-23.7-1-34.3
	c1.4-21.1,3.2-36.5,3.2-36.5s-11.2,11-20.1,32.5c-4.4,10.7-8.4,24.1-8.7,39.8c0.2,7.7,0.3,16.3,3.5,24.8
	C518.9,333.4,521.3,338.1,523.8,342.6z"/>
<path fill="#FFFFFF" d="M636.9,453.3c2.7,5.1,4.5,6.5,6.9,9.9l6.1,7.3c1.1,2.4,3,4.4,3.8,7.1c2,5.1,4.2,10.5,4.8,16.4
	c2,11.7,1.8,23.8,1.3,34.4c-1.4,21.3-3.5,36.8-3.5,36.8s11.4-11,20.4-32.8c2.3-5.4,4.5-11.5,5.9-18.3c1.5-6.8,2.9-14.1,2.6-22.2
	c0-7.9-0.9-16.6-4.1-25c-1.3-4.3-3.9-8.4-5.9-12.5c-1.2-2-2.7-3.8-4.1-5.7l-2.2-2.8l-1.1-1.4l-0.3-0.4c0.1,0.1,0.3,0.4,0.7,0.9
	l-0.1-0.2l-0.4-0.6c-1.9-2.6-5.7-6.3-6.1-7.9c-0.9-1.9-2.2-3.5-3.1-6.4c-2.1-5-3.6-10.8-4.5-16.7c-1.8-11.8-1.5-24-1.1-34.7
	c1.3-21.3,3.2-36.9,3.2-36.9s-11.1,11.3-20.1,33c-4.5,10.8-8.6,24.4-8.7,40.2c0.2,7.8,0.3,16.5,3.6,25
	C631.9,443.9,634.3,448.7,636.9,453.3z"/>
</svg>
